<?xml version="1.0" encoding="UTF-8" standalone="no"?>
<svg
   inkscape:version="1.4.3 (unknown)"
   sodipodi:docname="tabbar.svg"
   id="svg112"
   version="1.1"
   height="220"
   width="220"
   xmlns:inkscape="http://www.inkscape.org/namespaces/inkscape"
   xmlns:sodipodi="http://sodipodi.sourceforge.net/DTD/sodipodi-0.dtd"
   xmlns="http://www.w3.org/2000/svg"
   xmlns:svg="http://www.w3.org/2000/svg"
   xmlns:rdf="http://www.w3.org/1999/02/22-rdf-syntax-ns#"
   xmlns:cc="http://creativecommons.org/ns#"
   xmlns:dc="http://purl.org/dc/elements/1.1/">
  <metadata
     id="metadata116">
    <rdf:RDF>
      <cc:Work
         rdf:about="">
        <dc:format>image/svg+xml</dc:format>
        <dc:type
           rdf:resource="http://purl.org/dc/dcmitype/StillImage" />
      </cc:Work>
    </rdf:RDF>
  </metadata>
  <sodipodi:namedview
     inkscape:document-rotation="0"
     inkscape:bbox-nodes="true"
     inkscape:snap-bbox-edge-midpoints="true"
     inkscape:snap-bbox="true"
     inkscape:current-layer="svg112"
     inkscape:window-maximized="1"
     inkscape:window-y="0"
     inkscape:window-x="0"
     inkscape:cy="127.19511"
     inkscape:cx="103.1795"
     inkscape:zoom="13.699426"
     inkscape:guide-bbox="true"
     showguides="true"
     showgrid="true"
     id="namedview114"
     inkscape:window-height="994"
     inkscape:window-width="1920"
     inkscape:pageshadow="2"
     inkscape:pageopacity="0"
     guidetolerance="10"
     gridtolerance="10"
     objecttolerance="10"
     borderopacity="1"
     bordercolor="#5763db"
     pagecolor="#232f41"
     inkscape:pagecheckerboard="true"
     inkscape:showpageshadow="true"
     inkscape:lockguides="false"
     inkscape:deskcolor="#232f41">
    <inkscape:grid
       type="xygrid"
       id="grid2892"
       originx="0"
       originy="0"
       spacingy="1"
       spacingx="1"
       units="px"
       visible="true" />
  </sodipodi:namedview>
  <defs
     id="defs3">
    <style
       type="text/css"
       id="current-color-scheme">.ColorScheme-Highlight { color:#008080; }
.ColorScheme-Text { color:#c0c7d8; }
.ColorScheme-Background {   }
.ColorScheme-ViewText { color:#31363b; }
.ColorScheme-ViewBackground { color:#fcfcfc; }
.ColorScheme-ViewHover { color:#3daee9; }
.ColorScheme-ViewFocus { color:#3daee9; }
.ColorScheme-ButtonText { color:#31363b; }
.ColorScheme-ButtonBackground { color:#eff0f1; }
.ColorScheme-ButtonHover { color:#3daee9; }
.ColorScheme-ButtonFocus { color:#3daee9; }
</style>
  </defs>
  <rect
     style="opacity:0.01;fill:#3485fd;fill-opacity:0.01;stroke:none;stroke-width:0.969893"
     id="hint-tile-center"
     width="40"
     height="40"
     x="220"
     y="0" />
  <rect
     y="-18.000004"
     x="66.000076"
     height="1"
     width="6"
     id="south-active-tab-hint-left-margin"
     style="fill:#008080;fill-opacity:1;fill-rule:nonzero;stroke:none;stroke-width:0.365147" />
  <rect
     style="fill:#008080;fill-opacity:1;fill-rule:nonzero;stroke:none;stroke-width:0.365147"
     id="south-active-tab-hint-right-margin"
     width="5.9999995"
     height="1"
     x="73.000076"
     y="-18.000004" />
  <rect
     y="-24"
     x="72.000076"
     height="6"
     width="1"
     id="south-active-tab-hint-top-margin"
     style="fill:#008080;fill-opacity:1;fill-rule:nonzero;stroke:none;stroke-width:0.316227" />
  <rect
     style="fill:#008080;fill-opacity:1;fill-rule:nonzero;stroke:none;stroke-width:0.447212"
     id="south-active-tab-hint-bottom-margin"
     width="1"
     height="6"
     x="72.000076"
     y="-17" />
  <rect
     id="east-active-tab-bottom"
     style="opacity:0.00100002"
     width="10"
     height="12"
     x="-124.70002"
     y="174.00005"
     transform="rotate(-90)" />
  <rect
     id="east-active-tab-center"
     style="opacity:0.00100002"
     width="80"
     height="12"
     x="-114.70002"
     y="174.00005"
     transform="rotate(-90)" />
  <rect
     id="east-active-tab-top"
     style="opacity:0.00100002"
     width="10"
     height="12"
     x="-35"
     y="174.00005"
     transform="rotate(-90)" />
  <rect
     id="east-active-tab-topright"
     style="opacity:0.00100002"
     width="10"
     height="4"
     x="-35"
     y="186.00005"
     transform="rotate(-90)" />
  <rect
     id="east-active-tab-right"
     style="opacity:0.00100002"
     width="80"
     height="4"
     x="-114.70002"
     y="186.00005"
     transform="rotate(-90)" />
  <rect
     id="east-active-tab-bottomright"
     style="opacity:0.00100002"
     width="10"
     height="4"
     x="-124.70002"
     y="186.00005"
     transform="rotate(-90)" />
  <g
     id="east-active-tab-left"
     style="opacity:0.8"
     transform="rotate(90,270.18011,265.18231)">
    <path
       id="rect3003-5-6"
       style="fill-opacity:1;fill:currentColor;opacity:1;"
       d="m 40,359.36218 h 80 v 3 H 40 Z"
       class="ColorScheme-Highlight" />
  </g>
  <rect
     id="west-active-tab-top"
     style="opacity:0.00100002"
     width="10"
     height="11.999999"
     x="25"
     y="-35.000061"
     transform="rotate(90)" />
  <rect
     id="west-active-tab-center"
     style="opacity:0.00100002"
     width="80"
     height="11.999999"
     x="35"
     y="-35.000061"
     transform="rotate(90)" />
  <rect
     id="west-active-tab-bottom"
     style="opacity:0.00100002"
     width="10"
     height="11.999999"
     x="115.00001"
     y="-35.000061"
     transform="rotate(90)" />
  <rect
     id="west-active-tab-bottomleft"
     style="opacity:0.00100002"
     width="10"
     height="3.9999998"
     x="115.00001"
     y="-23"
     transform="rotate(90)" />
  <rect
     id="west-active-tab-left"
     style="opacity:0.00100002"
     width="80"
     height="3.9999998"
     x="35"
     y="-23"
     transform="rotate(90)" />
  <rect
     id="west-active-tab-topleft"
     style="opacity:0.00100002"
     width="10"
     height="3.9999998"
     x="25"
     y="-23"
     transform="rotate(90)" />
  <g
     id="west-active-tab-right"
     style="opacity:0.8"
     transform="rotate(90,200.18,195.1822)">
    <path
       id="rect3003-5"
       style="fill-opacity:1;fill:currentColor;opacity:1;"
       d="m 40,359.36218 h 80 v 3 H 40 Z"
       class="ColorScheme-Highlight" />
  </g>
  <g
     id="west-active-tab-topright"
     style="opacity:0.8"
     transform="matrix(0,1,-0.99926561,0,395.0961,-4.9978043)">
    <rect
       id="rect3073-5-5"
       style="opacity:0.00100002"
       width="10"
       height="3"
       x="30"
       y="359.35999" />
    <path
       id="rect3542-0"
       style="fill-opacity:1;fill:currentColor;opacity:1;"
       transform="matrix(0,-1.0007349,1,0,-236.36218,576.51945)"
       d="m 215.5,269.36133 a 1.5,1.5 0 0 0 -1.5,1.5 c 0,0 0.002,5.50001 0,5.5 h 2.99805 l 0.002,-5.5 a 1.5,1.5 0 0 0 -1.5,-1.5 z"
       class="ColorScheme-Highlight" />
  </g>
  <g
     id="west-active-tab-bottomright"
     style="opacity:0.8"
     transform="matrix(0,1,-0.99926561,0,395.0961,-4.9978043)">
    <rect
       id="rect3073-45-07"
       style="opacity:0.00100002"
       width="10"
       height="3"
       x="120"
       y="359.35999" />
    <path
       id="rect3542-9-4"
       style="fill-opacity:1;fill:currentColor;opacity:1;"
       transform="matrix(0,-1.0007349,1,0,-236.36218,576.51945)"
       d="m 214,356.36133 c 0.002,10e-6 0,5.5 0,5.5 a 1.5,1.5 0 0 0 1.5,1.5 1.5,1.5 0 0 0 1.5,-1.5 l -0.002,-5.5 z"
       class="ColorScheme-Highlight" />
  </g>
  <g
     id="east-active-tab-topleft"
     style="opacity:0.8"
     transform="matrix(0,1,-0.99926566,0,535.09632,-4.9978043)">
    <rect
       id="rect3073-5-5-1"
       style="opacity:0.00100002"
       width="10"
       height="3"
       x="30"
       y="359.35999" />
    <path
       id="rect3542-0-7"
       style="fill-opacity:1;fill:currentColor;opacity:1;"
       transform="matrix(0,-1.0007349,1,0,-236.36218,770.66226)"
       d="m 409.5,269.36133 a 1.5,1.5 0 0 0 -1.5,1.5 c 0,0 0.002,5.50001 0,5.5 h 2.99805 l 0.002,-5.5 a 1.5,1.5 0 0 0 -1.5,-1.5 z"
       class="ColorScheme-Highlight" />
  </g>
  <g
     id="east-active-tab-bottomleft"
     style="opacity:0.8"
     transform="matrix(0,1,-0.99926566,0,535.09632,-4.9978043)">
    <rect
       id="rect3073-45-07-7"
       style="opacity:0.00100002"
       width="10"
       height="3"
       x="120"
       y="359.35999" />
    <path
       id="rect3542-9-4-6"
       style="fill-opacity:1;fill:currentColor;opacity:1;"
       transform="matrix(0,-1.0007349,1,0,-236.36218,770.66226)"
       d="m 408,356.36133 v 5.5 a 1.5,1.5 0 0 0 1.5,1.5 1.5,1.5 0 0 0 1.5,-1.5 l -0.002,-5.5 z"
       class="ColorScheme-Highlight" />
  </g>
  <rect
     id="north-active-tab-right"
     style="opacity:0.00100002"
     width="10"
     height="12"
     x="-151.99992"
     y="-204.00006"
     transform="scale(-1)" />
  <rect
     id="north-active-tab-center"
     style="opacity:0.00100002"
     width="80"
     height="12"
     x="-141.99992"
     y="-204.00006"
     transform="scale(-1)" />
  <rect
     id="north-active-tab-left"
     style="opacity:0.00100002"
     width="10"
     height="12"
     x="-62.000019"
     y="-204.00006"
     transform="scale(-1)" />
  <rect
     id="north-active-tab-topleft"
     style="opacity:0.00100002"
     width="10"
     height="4"
     x="-62.000019"
     y="-192"
     transform="scale(-1)" />
  <rect
     id="north-active-tab-top"
     style="opacity:0.00100002"
     width="80"
     height="4"
     x="-141.99992"
     y="-192"
     transform="scale(-1)" />
  <rect
     id="north-active-tab-topright"
     style="opacity:0.00100002"
     width="10"
     height="4"
     x="-151.99992"
     y="-192"
     transform="scale(-1)" />
  <g
     id="north-active-tab-bottom"
     style="fill:#3a6ab0;fill-opacity:1"
     transform="translate(22,-157.36011)">
    <path
       id="rect3003-6"
       style="fill-opacity:1;fill:currentColor;opacity:1;"
       d="m 40,359.36218 h 80 v 3 H 40 Z"
       class="ColorScheme-Highlight" />
  </g>
  <g
     id="north-active-tab-bottomleft"
     style="fill:#3a6ab0;fill-opacity:1"
     transform="matrix(1,0,0,0.99926566,22,-157.09402)">
    <rect
       id="rect3073-5-7"
       style="opacity:0.00100002;fill:#3a6ab0;fill-opacity:1"
       width="10"
       height="3"
       x="30"
       y="359.35999" />
    <path
       id="rect3542-3"
       style="fill-opacity:1;fill:currentColor;opacity:1;"
       transform="matrix(1,0,0,1.0007349,-243,134.83306)"
       d="m 277.5,224.36133 a 1.5,1.5 0 0 0 -1.5,1.5 1.5,1.5 0 0 0 1.5,1.5 c 0,0 5.50001,-4.2e-4 5.5,0 v -3 z"
       class="ColorScheme-Highlight" />
  </g>
  <g
     id="north-active-tab-bottomright"
     style="fill:#3a6ab0;fill-opacity:1"
     transform="matrix(1,0,0,0.99927074,-221,-25.192101)">
    <rect
       id="rect3073-45-6"
       style="opacity:0.00100002;fill:#3a6ab0;fill-opacity:1"
       width="10"
       height="3"
       x="363"
       y="227.36" />
    <rect
       id="rect3073-45-0"
       style="opacity:0.00100002;fill:#3a6ab0;fill-opacity:1"
       width="10"
       height="3"
       x="363"
       y="227.36" />
    <path
       id="rect3542-9-8"
       style="fill-opacity:1;fill:currentColor;opacity:1;"
       transform="matrix(1,0,0,1.0007298,0,2.8342025)"
       d="m 368.5,224.36133 c 0,0 -5.5,0.002 -5.5,0.004 v 2.9961 h 5.5 a 1.5,1.5 0 0 0 1.5,-1.5 1.5,1.5 0 0 0 -1.5,-1.5 z"
       class="ColorScheme-Highlight" />
  </g>
  <rect
     id="east-active-tab-hint-bottom-margin"
     style="fill:#9955ff"
     width="6"
     height="5"
     x="-128"
     y="315"
     transform="rotate(-90)" />
  <rect
     id="east-active-tab-hint-top-margin"
     style="fill:#9955ff"
     width="6"
     height="5"
     x="-34"
     y="315"
     transform="rotate(-90)" />
  <rect
     id="east-active-tab-hint-left-margin"
     style="fill:#008080"
     width="5"
     height="8"
     x="-74"
     y="307.69998"
     transform="rotate(-90)" />
  <rect
     id="east-active-tab-hint-right-margin"
     style="fill:#008080"
     width="5"
     height="4"
     x="-74"
     y="320.69998"
     transform="rotate(-90)" />
  <rect
     id="west-active-tab-hint-top-margin"
     style="fill:#9955ff"
     width="6"
     height="5"
     x="33"
     y="60"
     transform="rotate(90)" />
  <rect
     id="west-active-tab-hint-bottom-margin"
     style="fill:#9955ff"
     width="6"
     height="5"
     x="127"
     y="60"
     transform="rotate(90)" />
  <rect
     id="west-active-tab-hint-right-margin"
     style="fill:#008080"
     width="5"
     height="8"
     x="74"
     y="51.200012"
     transform="rotate(90)" />
  <rect
     id="west-active-tab-hint-left-margin"
     style="fill:#008080"
     width="5"
     height="4"
     x="74"
     y="64.199997"
     transform="rotate(90)" />
  <rect
     id="north-focus-hint-right-margin"
     style="fill:#b380ff"
     width="6"
     height="5"
     x="-152.48708"
     y="-283"
     transform="scale(-1)" />
  <rect
     id="north-focus-hint-left-margin"
     style="fill:#b380ff"
     width="6"
     height="5"
     x="-58.487106"
     y="-283"
     transform="scale(-1)" />
  <rect
     id="north-focus-hint-bottom-margin"
     style="fill:#008080"
     width="5"
     height="8"
     x="-105"
     y="-290"
     transform="scale(-1)" />
  <rect
     id="north-focus-hint-top-margin"
     style="fill:#008080"
     width="5"
     height="4"
     x="-105"
     y="-277"
     transform="scale(-1)" />
  <g
     id="south-active-tab-center">
    <rect
       style="fill:currentColor;fill-opacity:0.1"
       id="normalBase-2"
       width="6"
       height="6"
       x="105"
       y="133"
       class="ColorScheme-Highlight" />
  </g>
  <g
     id="south-active-tab-topleft">
    <rect
       style="opacity:0.003;fill:#000000;stroke-width:1.22222;stroke-linejoin:round"
       id="rect1097-4"
       width="7"
       height="11"
       x="96.999992"
       y="121" />
    <path
       sodipodi:nodetypes="sscs"
       d="m 104,127 c -2.77001,0 -5.000001,2.23 -5.000001,5 H 104 Z"
       style="fill:currentColor;fill-opacity:0.1;stroke-width:0.999999"
       id="path1095-30"
       class="ColorScheme-Highlight" />
    <path
       id="path1095-3-0-7"
       style="stroke-width:1;fill-opacity:1;fill:currentColor;opacity:0.35;"
       d="m 104,127 c -2.77,0 -5.000001,2.23 -5.000001,5 h 0.999998 c 0,-2.216 1.784003,-4 4.000003,-4 z"
       class="ColorScheme-Highlight" />
  </g>
  <g
     id="south-active-tab-topright">
    <rect
       style="opacity:0.003;fill:#000000;stroke-width:1.22224;stroke-linejoin:round"
       id="rect1097-6-6"
       width="11"
       height="7"
       x="121"
       y="-119.00006"
       transform="rotate(90)" />
    <path
       sodipodi:nodetypes="sscs"
       d="m 117,132 c 0,-2.77 -2.23,-5 -5,-5 v 5 z"
       style="fill:currentColor;fill-opacity:0.1"
       id="path1095-7-8"
       class="ColorScheme-Highlight" />
    <path
       id="path1095-3-06-8"
       style="fill-opacity:1;fill:currentColor;opacity:0.35;"
       d="m 117,132 c 0,-2.77 -2.23,-5 -5,-5 v 1 c 2.216,0 4,1.784 4,4 z"
       class="ColorScheme-Highlight" />
  </g>
  <g
     id="south-active-tab-top">
    <rect
       style="opacity:0.003;fill:#000000;stroke-width:1.10554;stroke-linejoin:round"
       id="rect1104-0-2-49"
       width="11"
       height="6"
       x="121"
       y="-111"
       transform="rotate(90)" />
    <rect
       y="-111"
       x="127"
       height="6"
       width="5"
       id="rect1102-2-2-5"
       style="fill:currentColor;fill-opacity:0.1;stroke-width:0.912871"
       transform="rotate(90)"
       class="ColorScheme-Highlight" />
    <rect
       style="stroke-linejoin:round;fill-opacity:1;fill:currentColor;opacity:0.35;"
       id="rect1111-9-8-0"
       width="6"
       height="1"
       x="105"
       y="127"
       class="ColorScheme-Highlight" />
  </g>
  <g
     id="south-active-tab-left">
    <rect
       style="opacity:0.003;fill:#000000;stroke-width:1.10555;stroke-linejoin:round"
       id="rect1104-4"
       width="7"
       height="6"
       x="97"
       y="133" />
    <rect
       y="133"
       x="99"
       height="6"
       width="5"
       id="rect1102-7"
       style="fill:currentColor;fill-opacity:0.1;stroke-width:0.912871"
       class="ColorScheme-Highlight" />
    <rect
       style="stroke-linejoin:round;fill-opacity:1;fill:currentColor;opacity:0.3;"
       id="rect1111-9-8-0-9"
       width="6"
       height="1"
       x="133"
       y="-100"
       transform="rotate(90)"
       class="ColorScheme-Highlight" />
  </g>
  <g
     id="south-active-tab-right">
    <rect
       style="opacity:0.003;fill:#000000;stroke-width:1.10555;stroke-linejoin:round"
       id="rect1104-0-9"
       width="6.9999237"
       height="6"
       x="-119"
       y="-139"
       transform="scale(-1)" />
    <rect
       y="-139"
       x="-117"
       height="6"
       width="5"
       id="rect1102-2-26"
       style="fill:currentColor;fill-opacity:0.1;stroke-width:0.912871"
       transform="scale(-1)"
       class="ColorScheme-Highlight" />
    <rect
       style="stroke-linejoin:round;fill-opacity:1;fill:currentColor;opacity:0.3;"
       id="rect1111-9-8-0-0"
       width="6"
       height="1"
       x="133"
       y="-117.03546"
       transform="rotate(90)"
       class="ColorScheme-Highlight" />
  </g>
  <g
     id="south-active-tab-bottomleft">
    <rect
       style="opacity:0.003;fill:#000000;stroke-width:1.22223;stroke-linejoin:round"
       id="rect6957-0"
       width="11"
       height="7"
       x="-151.00008"
       y="97"
       transform="rotate(-90)" />
    <path
       sodipodi:nodetypes="sscs"
       d="m 99,140 c 0,2.77 2.23,5 5,5 v -5 z"
       style="fill:currentColor;fill-opacity:0.1"
       id="path6959-6"
       class="ColorScheme-Highlight" />
    <path
       id="path1095-3-0-7-8"
       style="stroke-width:1;fill-opacity:1;fill:currentColor;opacity:0.3;"
       d="m 99,140 c 0,2.77 2.23,5 5,5 v -1 c -2.216,0 -4,-1.784 -4,-4 z"
       class="ColorScheme-Highlight" />
  </g>
  <g
     id="south-active-tab-bottom">
    <rect
       style="opacity:0.003;fill:#000000;stroke-width:1.10555;stroke-linejoin:round"
       id="rect1104-0-2-7-8"
       width="10.99997"
       height="6"
       x="-150.99997"
       y="105"
       transform="rotate(-90)" />
    <rect
       y="105"
       x="-145"
       height="6"
       width="5"
       id="rect1102-2-2-3-7"
       style="fill:currentColor;fill-opacity:0.1;stroke-width:0.912871"
       transform="rotate(-90)"
       class="ColorScheme-Highlight" />
    <rect
       style="stroke-linejoin:round;fill-opacity:1;fill:currentColor;opacity:0.3;"
       id="rect1111-9-8-0-0-3-5"
       width="6"
       height="1"
       x="-111"
       y="-145"
       transform="scale(-1)"
       class="ColorScheme-Highlight" />
  </g>
  <g
     id="south-active-tab-bottomright">
    <rect
       style="opacity:0.003;fill:#000000;stroke-width:1.22223;stroke-linejoin:round"
       id="rect8153-4"
       width="11"
       height="7"
       x="-151"
       y="-119"
       transform="matrix(0,-1,-1,0,0,0)" />
    <path
       sodipodi:nodetypes="sscs"
       d="m 117,140 c 0,2.77 -2.23,5 -5,5 v -5 z"
       style="fill:currentColor;fill-opacity:0.1"
       id="path8155-9"
       class="ColorScheme-Highlight" />
    <path
       id="path1095-3-06-8-9-3"
       style="fill-opacity:1;fill:currentColor;opacity:0.3;"
       d="m 112,145 c 2.77,0 5,-2.23 5,-5 h -1 c 0,2.216 -1.784,4 -4,4 z"
       class="ColorScheme-Highlight" />
  </g>
</svg>
