<?xml version="1.0" encoding="UTF-8" standalone="no"?>
<svg
   id="svg4306"
   width="18"
   height="18"
   version="1.1"
   style="enable-background:new"
   sodipodi:docname="keepbelow.svg"
   inkscape:version="1.3.2 (091e20ef0f, 2023-11-25)"
   xmlns:inkscape="http://www.inkscape.org/namespaces/inkscape"
   xmlns:sodipodi="http://sodipodi.sourceforge.net/DTD/sodipodi-0.dtd"
   xmlns="http://www.w3.org/2000/svg"
   xmlns:svg="http://www.w3.org/2000/svg"
   xmlns:rdf="http://www.w3.org/1999/02/22-rdf-syntax-ns#"
   xmlns:cc="http://creativecommons.org/ns#"
   xmlns:dc="http://purl.org/dc/elements/1.1/">
  <metadata
     id="metadata28">
    <rdf:RDF>
      <cc:Work
         rdf:about="">
        <dc:format>image/svg+xml</dc:format>
        <dc:type
           rdf:resource="http://purl.org/dc/dcmitype/StillImage" />
      </cc:Work>
    </rdf:RDF>
  </metadata>
  <defs
     id="defs26" />
  <sodipodi:namedview
     inkscape:document-rotation="0"
     pagecolor="#b1b1b1"
     bordercolor="#31363b"
     borderopacity="1"
     objecttolerance="10"
     gridtolerance="10"
     guidetolerance="10"
     inkscape:pageopacity="0"
     inkscape:pageshadow="2"
     inkscape:window-width="1920"
     inkscape:window-height="994"
     id="namedview24"
     showgrid="true"
     inkscape:zoom="11.313709"
     inkscape:cx="-5.2149123"
     inkscape:cy="21.389979"
     inkscape:window-x="0"
     inkscape:window-y="0"
     inkscape:window-maximized="1"
     inkscape:current-layer="svg4306"
     inkscape:snap-bbox="true"
     inkscape:bbox-nodes="true"
     inkscape:lockguides="false"
     inkscape:showpageshadow="2"
     inkscape:pagecheckerboard="0"
     inkscape:deskcolor="#cccccc">
    <inkscape:grid
       type="xygrid"
       id="grid853"
       originx="-44"
       originy="0"
       spacingy="1"
       spacingx="1"
       units="px"
       visible="true" />
  </sodipodi:namedview>
  <style
     type="text/css"
     id="current-color-scheme" />
  <g
     id="active-center">
    <rect
       id="rect4266"
       width="18"
       height="18"
       x="-44"
       y="0"
       style="opacity:0.00100002;fill:#1f2329;fill-opacity:1;fill-rule:nonzero;stroke:none;stroke-width:1.6364;stroke-linecap:round;stroke-linejoin:round;stroke-miterlimit:4;stroke-dasharray:none;stroke-opacity:1" />
    <circle
       r="8"
       cy="9"
       cx="-35"
       id="path867-5-6-5"
       style="opacity:0.01;fill:#ffffff;fill-opacity:1;stroke-width:0.88978;enable-background:new" />
    <path
       d="m -40.092563,8.2727268 a 0.4077972,0.39500861 0 0 1 0.28818,0.1158721 l 4.809289,4.6584641 4.809291,-4.6584641 a 0.4077972,0.39500861 0 0 1 0.576354,0.5582788 l -5.09747,4.9376023 a 0.4077972,0.39500861 0 0 1 -0.57635,0 l -5.097466,-4.9376023 a 0.4077972,0.39500861 0 0 1 0.288172,-0.6741509 z"
       id="path4"
       style="fill:#d3dae3;fill-opacity:1;stroke-width:0.133779" />
    <path
       d="m -40.092563,5 a 0.4077972,0.39500861 0 0 1 0.28818,0.1158723 l 4.809289,4.6584697 4.809291,-4.6584697 a 0.4077972,0.39500861 0 0 1 0.576354,0.5582743 l -5.09747,4.9376034 a 0.4077972,0.39500861 0 0 1 -0.57635,0 L -40.380735,5.6741466 A 0.4077972,0.39500861 0 0 1 -40.092563,5 Z"
       id="path4-562"
       style="fill:#d3dae3;fill-opacity:1;stroke-width:0.133779;enable-background:new" />
  </g>
  <g
     id="hover-center"
     transform="translate(-44)">
    <rect
       style="opacity:0.00100002;fill:#1f2329;fill-opacity:1;fill-rule:nonzero;stroke:none;stroke-width:1.6364;stroke-linecap:round;stroke-linejoin:round;stroke-miterlimit:4;stroke-dasharray:none;stroke-opacity:1"
       y="0"
       x="22"
       height="18"
       width="18"
       id="rect4266-3" />
    <circle
       r="8"
       cy="9"
       cx="31"
       id="path867-5-6-5-67"
       style="fill:#ffffff;fill-opacity:0.50196081;stroke-width:0.88978;enable-background:new" />
    <path
       d="m 25.907438,8.2727268 a 0.40779983,0.3950086 0 0 1 0.288182,0.1158724 l 4.809324,4.6584628 4.809321,-4.6584628 a 0.40779983,0.3950086 0 0 1 0.57635,0.5582763 l -5.097502,4.9376055 a 0.40779983,0.3950086 0 0 1 -0.576351,0 L 25.619263,8.9468755 a 0.40779983,0.3950086 0 0 1 0.288175,-0.6741487 z"
       id="path4-5"
       style="fill:#1f2329;fill-opacity:1;stroke-width:0.133782;enable-background:new" />
    <path
       d="m 25.907438,5 a 0.40779983,0.3950086 0 0 1 0.288182,0.1158726 l 4.809324,4.6584684 4.809321,-4.6584684 a 0.40779983,0.3950086 0 0 1 0.57635,0.5582742 l -5.097502,4.9376022 a 0.40779983,0.3950086 0 0 1 -0.576351,0 L 25.619263,5.6741468 A 0.40779983,0.3950086 0 0 1 25.907438,5 Z"
       id="path4-5-9"
       style="fill:#1f2329;fill-opacity:1;stroke-width:0.133782;enable-background:new" />
  </g>
  <g
     id="pressed-center"
     transform="translate(-44)">
    <rect
       id="rect4266-3-6"
       width="18"
       height="18"
       x="44"
       y="0"
       style="opacity:0.00100002;fill:#1f2329;fill-opacity:1;fill-rule:nonzero;stroke:none;stroke-width:1.63638;stroke-linecap:round;stroke-linejoin:round;stroke-miterlimit:4;stroke-dasharray:none;stroke-opacity:1" />
    <circle
       r="8"
       cy="9"
       cx="53"
       id="path867-5-6-5-2-1"
       style="fill:#ffffff;fill-opacity:0.60000002;stroke-width:0.889781;enable-background:new" />
    <path
       d="m 47.907435,8.2727269 a 0.40779768,0.39500865 0 0 1 0.288181,0.115872 l 4.809296,4.6584671 4.809291,-4.6584671 a 0.40779768,0.39500865 0 0 1 0.576357,0.5582752 l -5.097479,4.9376069 a 0.40779768,0.39500865 0 0 1 -0.576348,0 L 47.619261,8.9468741 a 0.40779768,0.39500865 0 0 1 0.288174,-0.6741472 z"
       id="path4-9-2"
       style="fill:#1f2329;fill-opacity:1;stroke-width:0.133783;enable-background:new" />
    <path
       d="m 47.907435,5 a 0.40779768,0.39500865 0 0 1 0.288181,0.1158724 l 4.809296,4.6584678 4.809291,-4.6584678 a 0.40779768,0.39500865 0 0 1 0.576357,0.5582741 l -5.097479,4.9376085 a 0.40779768,0.39500865 0 0 1 -0.576348,0 L 47.619261,5.6741465 A 0.40779768,0.39500865 0 0 1 47.907435,5 Z"
       id="path4-9-2-1"
       style="fill:#1f2329;fill-opacity:1;stroke-width:0.133783;enable-background:new" />
  </g>
  <g
     id="inactive-center"
     transform="translate(-45,-37.999997)">
    <rect
       id="rect4266-6"
       width="18"
       height="18"
       x="1"
       y="62"
       style="opacity:0.00100002;fill:#1f2329;fill-opacity:1;fill-rule:nonzero;stroke:none;stroke-width:1.6364;stroke-linecap:round;stroke-linejoin:round;stroke-miterlimit:4;stroke-dasharray:none;stroke-opacity:1" />
    <circle
       r="8"
       cy="71"
       cx="10"
       id="path867-5-6-5-7"
       style="opacity:0.01;fill:#ffffff;fill-opacity:1;stroke-width:0.88978;enable-background:new" />
    <path
       d="m 4.9074371,70.272727 a 0.4077972,0.39500861 0 0 1 0.28818,0.115872 l 4.8092889,4.658464 4.809291,-4.658464 a 0.4077972,0.39500861 0 0 1 0.576354,0.558279 l -5.09747,4.937602 a 0.4077972,0.39500861 0 0 1 -0.5763497,0 L 4.6192648,70.946878 a 0.4077972,0.39500861 0 0 1 0.2881723,-0.674151 z"
       id="path4-53"
       style="fill:#4c566a;fill-opacity:1;stroke-width:0.133779" />
    <path
       d="m 4.9074371,67 a 0.4077972,0.39500861 0 0 1 0.28818,0.115872 l 4.8092889,4.65847 4.809291,-4.65847 a 0.4077972,0.39500861 0 0 1 0.576354,0.558275 l -5.09747,4.937603 a 0.4077972,0.39500861 0 0 1 -0.5763497,0 L 4.6192648,67.674147 A 0.4077972,0.39500861 0 0 1 4.9074371,67 Z"
       id="path4-562-5"
       style="fill:#4c566a;fill-opacity:1;stroke-width:0.133779;enable-background:new" />
  </g>
  <g
     id="hover-inactive-center"
     transform="translate(-22,24)">
    <rect
       style="opacity:0.00100002;fill:#1f2329;fill-opacity:1;fill-rule:nonzero;stroke:none;stroke-width:1.6364;stroke-linecap:round;stroke-linejoin:round;stroke-miterlimit:4;stroke-dasharray:none;stroke-opacity:1"
       y="0"
       x="0"
       height="18"
       width="18"
       id="rect4266-3-2" />
    <circle
       r="8"
       cy="9"
       cx="9"
       id="path867-5-6-5-67-9"
       style="fill:#ffffff;fill-opacity:0.5;stroke-width:0.88978;enable-background:new" />
    <path
       d="M 3.907438,8.2727268 A 0.40779983,0.3950086 0 0 1 4.19562,8.3885992 l 4.809324,4.6584628 4.809321,-4.6584628 a 0.40779983,0.3950086 0 0 1 0.57635,0.5582763 L 9.293113,13.884481 a 0.40779983,0.3950086 0 0 1 -0.576351,0 L 3.619263,8.9468755 A 0.40779983,0.3950086 0 0 1 3.907438,8.2727268 Z"
       id="path4-5-1"
       style="fill:#1f2329;fill-opacity:1;stroke-width:0.133782;enable-background:new" />
    <path
       d="M 3.907438,5 A 0.40779983,0.3950086 0 0 1 4.19562,5.1158726 L 9.004944,9.774341 13.814265,5.1158726 a 0.40779983,0.3950086 0 0 1 0.57635,0.5582742 L 9.293113,10.611749 a 0.40779983,0.3950086 0 0 1 -0.576351,0 L 3.619263,5.6741468 A 0.40779983,0.3950086 0 0 1 3.907438,5 Z"
       id="path4-5-9-2"
       style="fill:#1f2329;fill-opacity:1;stroke-width:0.133782;enable-background:new" />
  </g>
  <g
     id="pressed-inactive-center"
     transform="translate(-22,24)">
    <rect
       id="rect4266-3-6-0"
       width="18"
       height="18"
       x="22"
       y="0"
       style="opacity:0.00100002;fill:#1f2329;fill-opacity:1;fill-rule:nonzero;stroke:none;stroke-width:1.63638;stroke-linecap:round;stroke-linejoin:round;stroke-miterlimit:4;stroke-dasharray:none;stroke-opacity:1" />
    <circle
       r="8"
       cy="9"
       cx="31"
       id="path867-5-6-5-2-1-9"
       style="fill:#ffffff;fill-opacity:0.5999999;stroke-width:0.889781;enable-background:new" />
    <path
       d="m 25.907435,8.2727269 a 0.40779768,0.39500865 0 0 1 0.288181,0.115872 l 4.809296,4.6584671 4.809291,-4.6584671 a 0.40779768,0.39500865 0 0 1 0.576357,0.5582752 l -5.097479,4.9376069 a 0.40779768,0.39500865 0 0 1 -0.576348,0 L 25.619261,8.9468741 a 0.40779768,0.39500865 0 0 1 0.288174,-0.6741472 z"
       id="path4-9-2-3"
       style="fill:#1f2329;fill-opacity:1;stroke-width:0.133783;enable-background:new" />
    <path
       d="m 25.907435,5 a 0.40779768,0.39500865 0 0 1 0.288181,0.1158724 l 4.809296,4.6584678 4.809291,-4.6584678 a 0.40779768,0.39500865 0 0 1 0.576357,0.5582741 l -5.097479,4.9376085 a 0.40779768,0.39500865 0 0 1 -0.576348,0 L 25.619261,5.6741465 A 0.40779768,0.39500865 0 0 1 25.907435,5 Z"
       id="path4-9-2-1-6"
       style="fill:#1f2329;fill-opacity:1;stroke-width:0.133783;enable-background:new" />
  </g>
</svg>
