<?xml version="1.0" encoding="UTF-8" standalone="no"?>
<svg
   id="svg4306"
   width="17.999996"
   height="17.999996"
   version="1.1"
   style="enable-background:new"
   sodipodi:docname="keepabove.svg"
   inkscape:version="1.3.2 (091e20ef0f, 2023-11-25)"
   xmlns:inkscape="http://www.inkscape.org/namespaces/inkscape"
   xmlns:sodipodi="http://sodipodi.sourceforge.net/DTD/sodipodi-0.dtd"
   xmlns="http://www.w3.org/2000/svg"
   xmlns:svg="http://www.w3.org/2000/svg"
   xmlns:rdf="http://www.w3.org/1999/02/22-rdf-syntax-ns#"
   xmlns:cc="http://creativecommons.org/ns#"
   xmlns:dc="http://purl.org/dc/elements/1.1/">
  <metadata
     id="metadata28">
    <rdf:RDF>
      <cc:Work
         rdf:about="">
        <dc:format>image/svg+xml</dc:format>
        <dc:type
           rdf:resource="http://purl.org/dc/dcmitype/StillImage" />
      </cc:Work>
    </rdf:RDF>
  </metadata>
  <defs
     id="defs26" />
  <sodipodi:namedview
     inkscape:document-rotation="0"
     pagecolor="#8c8c8c"
     bordercolor="#31363b"
     borderopacity="1"
     objecttolerance="10"
     gridtolerance="10"
     guidetolerance="10"
     inkscape:pageopacity="0"
     inkscape:pageshadow="2"
     inkscape:window-width="1920"
     inkscape:window-height="994"
     id="namedview24"
     showgrid="true"
     inkscape:zoom="11.313708"
     inkscape:cx="-6.0987963"
     inkscape:cy="26.781671"
     inkscape:window-x="0"
     inkscape:window-y="0"
     inkscape:window-maximized="1"
     inkscape:current-layer="svg4306"
     inkscape:snap-bbox="true"
     inkscape:bbox-nodes="true"
     inkscape:lockguides="false"
     inkscape:showpageshadow="2"
     inkscape:pagecheckerboard="0"
     inkscape:deskcolor="#cccccc">
    <inkscape:grid
       type="xygrid"
       id="grid853"
       originx="-44"
       originy="1.5751953e-06"
       spacingy="1"
       spacingx="1"
       units="px"
       visible="true" />
  </sodipodi:namedview>
  <style
     type="text/css"
     id="current-color-scheme" />
  <g
     id="active-center"
     transform="translate(-44)">
    <rect
       id="rect4266"
       width="18.1"
       height="18"
       x="0"
       y="-4e-08"
       style="opacity:0.00100002;fill:#1f2329;fill-opacity:1;fill-rule:nonzero;stroke:none;stroke-width:1.6409;stroke-linecap:round;stroke-linejoin:round;stroke-miterlimit:4;stroke-dasharray:none;stroke-opacity:1" />
    <circle
       cy="9.0000019"
       cx="9"
       id="path867-5-6-5"
       style="opacity:0.01;fill:#ffffff;fill-opacity:1;stroke-width:0.889804;enable-background:new"
       r="8" />
    <path
       d="M 14.092564,12.999997 A 0.4077992,0.39500863 0 0 1 13.804383,12.884125 L 8.9950685,8.2256598 4.1857567,12.884125 A 0.4077992,0.39500863 0 0 1 3.6094022,12.325851 L 8.7068959,7.3882459 a 0.4077992,0.39500863 0 0 1 0.5763504,0 L 14.38074,12.325851 a 0.4077992,0.39500863 0 0 1 -0.288176,0.674146 z"
       id="path4"
       style="fill:#d3dae3;fill-opacity:1;stroke-width:0.133782" />
    <path
       d="M 14.092564,9.7272665 A 0.4077992,0.39500863 0 0 1 13.804383,9.6113939 L 8.9950685,4.9529328 4.1857567,9.6113939 A 0.4077992,0.39500863 0 0 1 3.6094022,9.0531215 L 8.7068959,4.1155188 a 0.4077992,0.39500863 0 0 1 0.5763504,0 L 14.38074,9.0531215 a 0.4077992,0.39500863 0 0 1 -0.288176,0.674145 z"
       id="path4-562"
       style="fill:#d3dae3;fill-opacity:1;stroke-width:0.133782;enable-background:new" />
  </g>
  <g
     id="hover-center"
     transform="translate(-22)">
    <rect
       style="opacity:0.00100002;fill:#1f2329;fill-opacity:1;fill-rule:nonzero;stroke:none;stroke-width:1.6364;stroke-linecap:round;stroke-linejoin:round;stroke-miterlimit:4;stroke-dasharray:none;stroke-opacity:1"
       y="0"
       x="0"
       height="18"
       width="18"
       id="rect4266-3" />
    <ellipse
       cy="9"
       cx="9.0454998"
       id="path867-5-6-5-67"
       style="fill:#ffffff;fill-opacity:0.501961;stroke-width:0.89231;enable-background:new"
       rx="8.0454998"
       ry="8" />
    <path
       d="M 14.092569,12.999998 A 0.40780043,0.3950088 0 0 1 13.804378,12.884119 L 8.9950551,8.2256596 4.1857248,12.884119 A 0.40780043,0.3950088 0 0 1 3.6093681,12.325851 l 5.097512,-4.9376062 a 0.40780043,0.3950088 0 0 1 0.5763487,0 l 5.0975092,4.9376062 a 0.40780043,0.3950088 0 0 1 -0.288169,0.674147 z"
       id="path4-5"
       style="fill:#1f2329;fill-opacity:1;stroke-width:0.133786;enable-background:new" />
    <path
       d="M 14.092554,9.727275 A 0.40780043,0.3950088 0 0 1 13.804365,9.6113958 L 8.9950424,4.9529309 4.1857122,9.6113958 A 0.40780043,0.3950088 0 0 1 3.6093569,9.053127 L 8.7068691,4.1155167 a 0.40780043,0.3950088 0 0 1 0.5763476,0 L 14.380727,9.053127 a 0.40780043,0.3950088 0 0 1 -0.288173,0.674148 z"
       id="path4-5-9"
       style="fill:#1f2329;fill-opacity:1;stroke-width:0.133786;enable-background:new" />
  </g>
  <g
     id="pressed-center">
    <rect
       id="rect4266-3-6"
       width="17.999996"
       height="17.999996"
       x="0"
       y="0"
       style="opacity:0.00100002;fill:#1f2329;fill-opacity:1;fill-rule:nonzero;stroke:none;stroke-width:1.6364;stroke-linecap:round;stroke-linejoin:round;stroke-miterlimit:4;stroke-dasharray:none;stroke-opacity:1" />
    <circle
       r="8"
       cy="9"
       cx="9"
       id="path867-5-6-5-2-1"
       style="fill:#ffffff;fill-opacity:0.6;stroke-width:0.889778;enable-background:new" />
    <path
       d="M 14.092565,13 A 0.40779904,0.39500883 0 0 1 13.804387,12.884126 L 8.9950754,8.2256608 4.185761,12.884126 A 0.40779904,0.39500883 0 0 1 3.6094111,12.325856 L 8.706899,7.3882466 a 0.40779904,0.39500883 0 0 1 0.5763507,0 L 14.380742,12.325856 A 0.40779904,0.39500883 0 0 1 14.092565,13 Z"
       id="path4-9-2"
       style="fill:#1f2329;fill-opacity:1;stroke-width:0.133781;enable-background:new" />
    <path
       d="M 14.092555,9.727273 A 0.40779904,0.39500883 0 0 1 13.804373,9.611397 L 8.9950619,4.9529325 4.1857547,9.611397 A 0.40779904,0.39500883 0 0 1 3.6093998,9.0531236 L 8.7068876,4.1155181 a 0.40779904,0.39500883 0 0 1 0.5763487,0 L 14.380732,9.0531236 A 0.40779904,0.39500883 0 0 1 14.092555,9.727273 Z"
       id="path4-9-2-1"
       style="fill:#1f2329;fill-opacity:1;stroke-width:0.133781;enable-background:new" />
  </g>
  <g
     id="inactive-center"
     transform="translate(-44,27.296312)">
    <rect
       id="rect4266-6"
       width="18.1"
       height="18"
       x="0"
       y="-1.7944336e-07"
       style="opacity:0.00100002;fill:#1f2329;fill-opacity:1;fill-rule:nonzero;stroke:none;stroke-width:1.6409;stroke-linecap:round;stroke-linejoin:round;stroke-miterlimit:4;stroke-dasharray:none;stroke-opacity:1" />
    <circle
       cy="9.0000038"
       cx="9"
       id="path867-5-6-5-7"
       style="opacity:0.01;fill:#ffffff;fill-opacity:1;stroke-width:0.889804;enable-background:new"
       r="8" />
    <path
       d="M 14.092564,12.999996 A 0.40779944,0.39500865 0 0 1 13.804383,12.884124 L 8.9950655,8.2256595 4.1857505,12.884124 A 0.40779944,0.39500865 0 0 1 3.6093965,12.32585 L 8.7068934,7.3882455 a 0.40779944,0.39500865 0 0 1 0.5763501,0 L 14.38074,12.32585 a 0.40779944,0.39500865 0 0 1 -0.288176,0.674146 z"
       id="path4-53"
       style="fill:#4c566a;fill-opacity:1;stroke-width:0.133782" />
    <path
       d="m 14.092564,9.7272665 a 0.40779944,0.39500865 0 0 1 -0.288181,-0.115872 l -4.8093175,-4.658462 -4.809315,4.658462 a 0.40779944,0.39500865 0 0 1 -0.576354,-0.558273 l 5.0974969,-4.937603 a 0.40779944,0.39500865 0 0 1 0.5763501,0 l 5.0974965,4.937603 a 0.40779944,0.39500865 0 0 1 -0.288176,0.674145 z"
       id="path4-562-5"
       style="fill:#4c566a;fill-opacity:1;stroke-width:0.133782;enable-background:new" />
  </g>
  <g
     id="hover-inactive-center"
     transform="translate(-22,27.296312)">
    <rect
       style="opacity:0.00100002;fill:#1f2329;fill-opacity:1;fill-rule:nonzero;stroke:none;stroke-width:1.6364;stroke-linecap:round;stroke-linejoin:round;stroke-miterlimit:4;stroke-dasharray:none;stroke-opacity:1"
       y="0"
       x="0"
       height="18"
       width="18"
       id="rect4266-3-2" />
    <ellipse
       cy="9"
       cx="9.0454998"
       id="path867-5-6-5-67-9"
       style="fill:#ffffff;fill-opacity:0.5;stroke-width:0.89231;enable-background:new"
       rx="8.0454998"
       ry="8" />
    <path
       d="M 14.092569,12.999998 A 0.40780043,0.3950088 0 0 1 13.804378,12.884119 L 8.9950551,8.2256596 4.1857248,12.884119 A 0.40780043,0.3950088 0 0 1 3.6093681,12.325851 l 5.097512,-4.9376062 a 0.40780043,0.3950088 0 0 1 0.5763487,0 l 5.0975092,4.9376062 a 0.40780043,0.3950088 0 0 1 -0.288169,0.674147 z"
       id="path4-5-1"
       style="fill:#1f2329;fill-opacity:1;stroke-width:0.133786;enable-background:new" />
    <path
       d="M 14.092554,9.727275 A 0.40780043,0.3950088 0 0 1 13.804365,9.6113958 L 8.9950424,4.9529309 4.1857122,9.6113958 A 0.40780043,0.3950088 0 0 1 3.6093569,9.053127 L 8.7068691,4.1155167 a 0.40780043,0.3950088 0 0 1 0.5763476,0 L 14.380727,9.053127 a 0.40780043,0.3950088 0 0 1 -0.288173,0.674148 z"
       id="path4-5-9-2"
       style="fill:#1f2329;fill-opacity:1;stroke-width:0.133786;enable-background:new" />
  </g>
  <g
     id="pressed-inactive-center"
     transform="translate(0,27.296312)">
    <rect
       id="rect4266-3-6-0"
       width="17.999996"
       height="17.999996"
       x="0"
       y="0"
       style="opacity:0.00100002;fill:#1f2329;fill-opacity:1;fill-rule:nonzero;stroke:none;stroke-width:1.6364;stroke-linecap:round;stroke-linejoin:round;stroke-miterlimit:4;stroke-dasharray:none;stroke-opacity:1" />
    <circle
       r="8"
       cy="9"
       cx="9"
       id="path867-5-6-5-2-1-9"
       style="fill:#ffffff;fill-opacity:0.5999999;stroke-width:0.889778;enable-background:new" />
    <path
       d="M 14.092567,13 A 0.4077991,0.39500883 0 0 1 13.80439,12.884126 L 8.9950756,8.2256608 4.1857605,12.884126 A 0.4077991,0.39500883 0 0 1 3.6094106,12.325856 L 8.7068991,7.3882466 a 0.4077991,0.39500883 0 0 1 0.576351,0 L 14.380742,12.325856 A 0.4077991,0.39500883 0 0 1 14.092567,13 Z"
       id="path4-9-2-3"
       style="fill:#1f2329;fill-opacity:1;stroke-width:0.133781;enable-background:new" />
    <path
       d="M 14.092555,9.727273 A 0.4077991,0.39500883 0 0 1 13.804374,9.611397 L 8.9950622,4.9529325 4.1857542,9.611397 A 0.4077991,0.39500883 0 0 1 3.6093993,9.0531236 L 8.7068878,4.1155181 a 0.4077991,0.39500883 0 0 1 0.5763487,0 L 14.380733,9.0531236 A 0.4077991,0.39500883 0 0 1 14.092555,9.727273 Z"
       id="path4-9-2-1-6"
       style="fill:#1f2329;fill-opacity:1;stroke-width:0.133781;enable-background:new" />
  </g>
</svg>
