<?xml version="1.0" encoding="UTF-8" standalone="no"?>
<svg
   id="svg4306"
   width="18"
   height="18"
   version="1.1"
   style="enable-background:new"
   sodipodi:docname="restore.svg"
   inkscape:version="1.3.2 (091e20ef0f, 2023-11-25)"
   xmlns:inkscape="http://www.inkscape.org/namespaces/inkscape"
   xmlns:sodipodi="http://sodipodi.sourceforge.net/DTD/sodipodi-0.dtd"
   xmlns="http://www.w3.org/2000/svg"
   xmlns:svg="http://www.w3.org/2000/svg"
   xmlns:rdf="http://www.w3.org/1999/02/22-rdf-syntax-ns#"
   xmlns:cc="http://creativecommons.org/ns#"
   xmlns:dc="http://purl.org/dc/elements/1.1/">
  <metadata
     id="metadata28">
    <rdf:RDF>
      <cc:Work
         rdf:about="">
        <dc:format>image/svg+xml</dc:format>
        <dc:type
           rdf:resource="http://purl.org/dc/dcmitype/StillImage" />
      </cc:Work>
    </rdf:RDF>
  </metadata>
  <defs
     id="defs26" />
  <sodipodi:namedview
     inkscape:document-rotation="0"
     pagecolor="#ffffff"
     bordercolor="#030303"
     borderopacity="1"
     objecttolerance="10"
     gridtolerance="10"
     guidetolerance="10"
     inkscape:pageopacity="0"
     inkscape:pageshadow="2"
     inkscape:window-width="1920"
     inkscape:window-height="994"
     id="namedview24"
     showgrid="true"
     inkscape:zoom="5.6568543"
     inkscape:cx="-10.783378"
     inkscape:cy="8.4852813"
     inkscape:window-x="0"
     inkscape:window-y="0"
     inkscape:window-maximized="1"
     inkscape:current-layer="svg4306"
     inkscape:snap-bbox="true"
     inkscape:bbox-nodes="true"
     inkscape:lockguides="false"
     inkscape:showpageshadow="2"
     inkscape:pagecheckerboard="0"
     inkscape:deskcolor="#d1d1d1">
    <inkscape:grid
       type="xygrid"
       id="grid853"
       originx="-44.000003"
       originy="1.6536743e-06"
       spacingy="1"
       spacingx="1"
       units="px"
       visible="true" />
  </sodipodi:namedview>
  <style
     type="text/css"
     id="current-color-scheme" />
  <g
     id="pressed-center">
    <rect
       id="rect4266-3-6"
       width="15.999999"
       height="15.999999"
       x="1.0000008"
       y="1.0000006"
       style="opacity:0.00100002;fill:#1f2329;fill-opacity:1;fill-rule:nonzero;stroke:none;stroke-width:1.45455;stroke-linecap:round;stroke-linejoin:round;stroke-miterlimit:4;stroke-dasharray:none;stroke-opacity:1" />
    <rect
       y="0"
       x="0"
       height="18"
       width="18"
       id="rect3074-5-5"
       style="opacity:0.01;fill:#ffffff;fill-opacity:0.00392157;stroke:none;stroke-width:1.02899" />
    <circle
       r="7.9999995"
       cy="9"
       cx="9"
       id="path867-5-6-5-2-1-6"
       style="fill:#ffffff;fill-opacity:0.5;stroke-width:0.889745;enable-background:new" />
    <path
       d="m 4.6018885,8.25 a 0.35218989,0.36209129 0 0 1 0.248883,0.106216 l 4.153495,4.270263 4.1534925,-4.270263 a 0.35218989,0.36209129 0 0 1 0.497761,0.511752 l -4.4023775,4.526141 a 0.35218989,0.36209129 0 0 1 -0.497756,0 L 4.3530105,8.867968 A 0.35218989,0.36209129 0 0 1 4.6018885,8.25 Z"
       id="path4-9-2-7"
       style="fill:#1f2329;fill-opacity:1;stroke-width:0.119032;enable-background:new" />
    <path
       d="M 13.398118,9.749998 A 0.35218989,0.36209129 0 0 1 13.149234,9.643781 L 8.9957405,5.3735215 4.8422475,9.643781 a 0.35218989,0.36209129 0 0 1 -0.497761,-0.51175 l 4.402378,-4.5261391 a 0.35218989,0.36209129 0 0 1 0.497756,0 L 13.646996,9.132031 a 0.35218989,0.36209129 0 0 1 -0.248878,0.617967 z"
       id="path4-9-2-1-5"
       style="fill:#1f2329;fill-opacity:1;stroke-width:0.119032;enable-background:new" />
  </g>
  <g
     id="hover-center">
    <rect
       style="opacity:0.00100002;fill:#1f2329;fill-opacity:1;fill-rule:nonzero;stroke:none;stroke-width:1.63636;stroke-linecap:round;stroke-linejoin:round;stroke-miterlimit:4;stroke-dasharray:none;stroke-opacity:1"
       y="-4e-08"
       x="-21.999998"
       height="18"
       width="18"
       id="rect4266-3" />
    <rect
       id="rect4266-3-6-56"
       width="15.999999"
       height="15.999999"
       x="-20.999998"
       y="1.0000006"
       style="opacity:0.00100002;fill:#1f2329;fill-opacity:1;fill-rule:nonzero;stroke:none;stroke-width:1.45455;stroke-linecap:round;stroke-linejoin:round;stroke-miterlimit:4;stroke-dasharray:none;stroke-opacity:1" />
    <rect
       y="0"
       x="-21.999998"
       height="18"
       width="18"
       id="rect3074-5-5-2"
       style="opacity:0.01;fill:#ffffff;fill-opacity:0.00392157;stroke:none;stroke-width:1.02899" />
    <circle
       r="7.9999995"
       cy="9"
       cx="-12.999999"
       id="path867-5-6-5-2-1-6-9"
       style="fill:#ffffff;fill-opacity:0.60000002;stroke-width:0.889745;enable-background:new" />
    <path
       d="m -17.39811,8.25 a 0.35218989,0.36209129 0 0 1 0.248883,0.106216 l 4.153495,4.270263 4.153492,-4.270263 a 0.35218989,0.36209129 0 0 1 0.497761,0.511752 l -4.402378,4.526141 a 0.35218989,0.36209129 0 0 1 -0.497756,0 L -17.646988,8.867968 A 0.35218989,0.36209129 0 0 1 -17.39811,8.25 Z"
       id="path4-9-2-7-1"
       style="fill:#1f2329;fill-opacity:1;stroke-width:0.119032;enable-background:new" />
    <path
       d="M -8.601881,9.749998 A 0.35218989,0.36209129 0 0 1 -8.850765,9.643781 l -4.153493,-4.2702595 -4.153493,4.2702595 a 0.35218989,0.36209129 0 0 1 -0.497761,-0.51175 l 4.402378,-4.5261391 a 0.35218989,0.36209129 0 0 1 0.497756,0 l 4.402375,4.5261391 a 0.35218989,0.36209129 0 0 1 -0.248878,0.617967 z"
       id="path4-9-2-1-5-2"
       style="fill:#1f2329;fill-opacity:1;stroke-width:0.119032;enable-background:new" />
  </g>
  <g
     id="active-center"
     transform="translate(-44)">
    <rect
       id="rect4266"
       width="18"
       height="18"
       x="0"
       y="3.0000001e-07"
       style="opacity:0.00100002;fill:#1f2329;fill-opacity:1;fill-rule:nonzero;stroke:none;stroke-width:1.63636;stroke-linecap:round;stroke-linejoin:round;stroke-miterlimit:4;stroke-dasharray:none;stroke-opacity:1" />
    <rect
       id="rect4266-3-6-7"
       width="15.999999"
       height="15.999999"
       x="1"
       y="1.0000008"
       style="opacity:0.00100002;fill:#1f2329;fill-opacity:1;fill-rule:nonzero;stroke:none;stroke-width:1.45455;stroke-linecap:round;stroke-linejoin:round;stroke-miterlimit:4;stroke-dasharray:none;stroke-opacity:1;enable-background:new" />
    <path
       d="m 4.6018881,8.2500002 a 0.35218989,0.36209129 0 0 1 0.248883,0.106216 L 9.004266,12.626479 13.157759,8.3562162 a 0.35218989,0.36209129 0 0 1 0.497761,0.511752 L 9.253142,13.394109 a 0.35218989,0.36209129 0 0 1 -0.4977559,0 L 4.3530101,8.8679682 a 0.35218989,0.36209129 0 0 1 0.248878,-0.617968 z"
       id="path4-9-2-7-9"
       style="fill:#1f2329;fill-opacity:1;stroke-width:0.119032;enable-background:new" />
    <path
       d="M 13.398118,9.7499982 A 0.35218989,0.36209129 0 0 1 13.149234,9.6437812 L 8.9957401,5.3735217 4.8422471,9.6437812 a 0.35218989,0.36209129 0 0 1 -0.49776,-0.51175 l 4.402377,-4.5261391 a 0.35218989,0.36209129 0 0 1 0.4977569,0 l 4.402375,4.5261391 a 0.35218989,0.36209129 0 0 1 -0.248878,0.617967 z"
       id="path4-9-2-1-5-3"
       style="fill:#1f2329;fill-opacity:1;stroke-width:0.119032;enable-background:new" />
  </g>
  <g
     id="inactive-center"
     transform="translate(22.999998)">
    <rect
       style="opacity:0.00100002;fill:#1f2329;fill-opacity:1;fill-rule:nonzero;stroke:none;stroke-width:1.63636;stroke-linecap:round;stroke-linejoin:round;stroke-miterlimit:4;stroke-dasharray:none;stroke-opacity:1"
       y="0"
       x="0"
       height="18"
       width="18"
       id="rect4266-9" />
    <circle
       style="opacity:0.01;fill:#ffffff;fill-opacity:1;stroke-width:0.819;enable-background:new"
       id="path867-5-6-5-1"
       cx="9"
       cy="9"
       r="7.3636365" />
    <path
       d="m 4.6018835,8.25 a 0.35218989,0.36209129 0 0 1 0.248883,0.106216 l 4.153495,4.270263 4.1534925,-4.270263 a 0.35218989,0.36209129 0 0 1 0.497761,0.511752 l -4.4023785,4.526141 a 0.35218989,0.36209129 0 0 1 -0.497756,0 L 4.3530055,8.867968 A 0.35218989,0.36209129 0 0 1 4.6018835,8.25 Z"
       id="path4-9-2-7-6"
       style="fill:#4c566a;fill-opacity:1;stroke-width:0.119032;enable-background:new" />
    <path
       d="M 13.398113,9.749998 A 0.35218989,0.36209129 0 0 1 13.149229,9.6437812 L 8.9957355,5.3735215 4.8422425,9.6437812 A 0.35218989,0.36209129 0 0 1 4.3444815,9.132031 l 4.402378,-4.5261391 a 0.35218989,0.36209129 0 0 1 0.497756,0 L 13.646991,9.132031 a 0.35218989,0.36209129 0 0 1 -0.248878,0.617967 z"
       id="path4-9-2-1-5-0"
       style="fill:#4c566a;fill-opacity:1;stroke-width:0.119032;enable-background:new" />
  </g>
</svg>
