<?xml version="1.0" encoding="UTF-8" standalone="no"?>
<svg
   id="svg4306"
   width="18"
   height="18"
   version="1.1"
   style="enable-background:new"
   sodipodi:docname="shade.svg"
   inkscape:version="1.3.2 (091e20ef0f, 2023-11-25)"
   xmlns:inkscape="http://www.inkscape.org/namespaces/inkscape"
   xmlns:sodipodi="http://sodipodi.sourceforge.net/DTD/sodipodi-0.dtd"
   xmlns="http://www.w3.org/2000/svg"
   xmlns:svg="http://www.w3.org/2000/svg"
   xmlns:rdf="http://www.w3.org/1999/02/22-rdf-syntax-ns#"
   xmlns:cc="http://creativecommons.org/ns#"
   xmlns:dc="http://purl.org/dc/elements/1.1/">
  <metadata
     id="metadata28">
    <rdf:RDF>
      <cc:Work
         rdf:about="">
        <dc:format>image/svg+xml</dc:format>
        <dc:type
           rdf:resource="http://purl.org/dc/dcmitype/StillImage" />
      </cc:Work>
    </rdf:RDF>
  </metadata>
  <defs
     id="defs26" />
  <sodipodi:namedview
     inkscape:document-rotation="0"
     pagecolor="#ffffff"
     bordercolor="#666666"
     borderopacity="1"
     objecttolerance="10"
     gridtolerance="10"
     guidetolerance="10"
     inkscape:pageopacity="0"
     inkscape:pageshadow="2"
     inkscape:window-width="1920"
     inkscape:window-height="994"
     id="namedview24"
     showgrid="true"
     inkscape:zoom="8.0000004"
     inkscape:cx="-11.374999"
     inkscape:cy="35.124998"
     inkscape:window-x="0"
     inkscape:window-y="0"
     inkscape:window-maximized="1"
     inkscape:current-layer="svg4306"
     inkscape:snap-bbox="true"
     inkscape:bbox-nodes="true"
     inkscape:lockguides="false"
     inkscape:showpageshadow="2"
     inkscape:pagecheckerboard="0"
     inkscape:deskcolor="#d1d1d1">
    <inkscape:grid
       id="grid1"
       units="px"
       originx="0"
       originy="0"
       spacingx="1"
       spacingy="1"
       empcolor="#0099e5"
       empopacity="0.30196078"
       color="#0099e5"
       opacity="0.14901961"
       empspacing="5"
       dotted="false"
       gridanglex="30"
       gridanglez="30"
       visible="true" />
  </sodipodi:namedview>
  <style
     type="text/css"
     id="current-color-scheme" />
  <g
     id="hover-inactive-center"
     transform="translate(-51,1.6579076)">
    <rect
       id="rect4266-3-6"
       width="18"
       height="18"
       x="51"
       y="-1.6579076"
       style="opacity:0.00100002;fill:#1f2329;fill-opacity:1;fill-rule:nonzero;stroke:none;stroke-width:1.6364;stroke-linecap:round;stroke-linejoin:round;stroke-miterlimit:4;stroke-dasharray:none;stroke-opacity:1" />
    <circle
       style="fill:#ffffff;fill-opacity:0.501961;stroke-width:0.88978;enable-background:new"
       id="path867-5-6-5-1-6"
       cx="60"
       cy="7.3420925"
       r="8" />
    <path
       d="M 64.398585,10.842092 A 0.35173099,0.35573912 0 0 1 64.150029,10.737738 L 60.00194,6.5423898 55.853871,10.737738 A 0.35173099,0.35573912 0 0 1 55.356746,10.234965 L 59.75339,5.7882212 a 0.35173099,0.35573912 0 0 1 0.497112,0 l 4.396633,4.4467438 a 0.35173099,0.35573912 0 0 1 -0.24855,0.607127 z"
       id="path4-3-2"
       style="fill:#1f2329;fill-opacity:1;stroke-width:0.11791;enable-background:new" />
    <path
       d="M 64.247484,4.1209486 H 55.723565 C 55.46216,4.1209486 55.25,3.9464767 55.25,3.731523 c 0,-0.2149647 0.21216,-0.3894306 0.473565,-0.3894306 h 8.523919 c 0.261399,0 0.473546,0.1744659 0.473546,0.3894306 0,0.2149537 -0.212147,0.3894256 -0.473546,0.3894256 z"
       id="path2-9"
       style="fill:#1f2329;fill-opacity:1;stroke-width:0.214724;enable-background:new" />
  </g>
  <g
     id="hover-center"
     transform="translate(-73)">
    <rect
       style="opacity:0.00100002;fill:#1f2329;fill-opacity:1;fill-rule:nonzero;stroke:none;stroke-width:1.63636;stroke-linecap:round;stroke-linejoin:round;stroke-miterlimit:4;stroke-dasharray:none;stroke-opacity:1"
       y="0"
       x="0"
       height="18"
       width="18"
       id="rect4266-3" />
    <circle
       style="fill:#ffffff;fill-opacity:0.5;stroke-width:0.88974;enable-background:new"
       id="path867-5-6-5-1-5"
       cx="9"
       cy="8.999999"
       r="8" />
    <path
       d="M 13.398585,12.5 A 0.35173099,0.35573912 0 0 1 13.150029,12.395646 L 9.00194,8.200297 4.853871,12.395646 A 0.35173099,0.35573912 0 0 1 4.356746,11.892873 L 8.75339,7.446129 a 0.35173099,0.35573912 0 0 1 0.497112,0 l 4.396633,4.446744 A 0.35173099,0.35573912 0 0 1 13.398585,12.5 Z"
       id="path4-3-2-7"
       style="fill:#1f2329;fill-opacity:1;stroke-width:0.11791;enable-background:new" />
    <path
       d="M 13.247484,5.778856 H 4.723565 C 4.46216,5.778856 4.25,5.604384 4.25,5.389431 4.25,5.174466 4.46216,5 4.723565,5 h 8.523919 c 0.261399,0 0.473546,0.174466 0.473546,0.389431 0,0.214953 -0.212147,0.389425 -0.473546,0.389425 z"
       id="path2-9-5"
       style="fill:#1f2329;fill-opacity:1;stroke-width:0.214724;enable-background:new" />
  </g>
  <g
     id="active-center"
     transform="translate(-95)">
    <rect
       id="rect4266"
       width="18"
       height="18"
       x="0"
       y="0"
       style="opacity:0.00100002;fill:#1f2329;fill-opacity:1;fill-rule:nonzero;stroke:none;stroke-width:1.63636;stroke-linecap:round;stroke-linejoin:round;stroke-miterlimit:4;stroke-dasharray:none;stroke-opacity:1" />
    <circle
       style="opacity:0.01;fill:#ffffff;fill-opacity:1;stroke-width:0.889773;enable-background:new"
       id="path867-5-6-5-1-3"
       cx="9"
       cy="9"
       r="8" />
    <path
       d="M 13.398585,12.5 A 0.35173099,0.35573912 0 0 1 13.150029,12.395646 L 9.00194,8.200297 4.853871,12.395646 A 0.35173099,0.35573912 0 0 1 4.356746,11.892873 L 8.75339,7.446129 a 0.35173099,0.35573912 0 0 1 0.497112,0 l 4.396633,4.446744 A 0.35173099,0.35573912 0 0 1 13.398585,12.5 Z"
       id="path4-3-2-7-3"
       style="fill:#1f2329;fill-opacity:1;stroke-width:0.11791;enable-background:new" />
    <path
       d="M 13.247484,5.778856 H 4.723565 C 4.46216,5.778856 4.25,5.604384 4.25,5.389431 4.25,5.174466 4.46216,5 4.723565,5 h 8.523919 c 0.261399,0 0.473546,0.174466 0.473546,0.389431 0,0.214953 -0.212147,0.389425 -0.473546,0.389425 z"
       id="path2-9-5-5"
       style="fill:#1f2329;fill-opacity:1;stroke-width:0.214724;enable-background:new" />
  </g>
  <g
     id="inactive-center"
     transform="translate(-24.749999)">
    <rect
       style="opacity:0.00100002;fill:#1f2329;fill-opacity:1;fill-rule:nonzero;stroke:none;stroke-width:1.63636;stroke-linecap:round;stroke-linejoin:round;stroke-miterlimit:4;stroke-dasharray:none;stroke-opacity:1"
       y="0"
       x="0"
       height="18"
       width="18"
       id="rect4266-9" />
    <circle
       style="opacity:0.01;fill:#ffffff;fill-opacity:1;stroke-width:0.819;enable-background:new"
       id="path867-5-6-5-1"
       cx="9"
       cy="9"
       r="7.3636365" />
    <path
       d="M 13.398585,12.5 A 0.35173099,0.35573912 0 0 1 13.15003,12.395646 L 9.001941,8.200297 4.853871,12.395646 A 0.35173099,0.35573912 0 0 1 4.356746,11.892873 L 8.753391,7.4461289 a 0.35173099,0.35573912 0 0 1 0.497112,0 l 4.396633,4.4467441 A 0.35173099,0.35573912 0 0 1 13.398585,12.5 Z"
       id="path4-3-2-7-3-6"
       style="fill:#4c566a;fill-opacity:1;stroke-width:0.11791;enable-background:new" />
    <path
       d="M 13.247484,5.778856 H 4.723565 C 4.46216,5.778856 4.25,5.604384 4.25,5.389431 4.25,5.174466 4.46216,5 4.723565,5 h 8.523919 c 0.261399,0 0.473546,0.174466 0.473546,0.389431 0,0.214953 -0.212147,0.389425 -0.473546,0.389425 z"
       id="path2-9-5-5-2"
       style="fill:#4c566a;fill-opacity:1;stroke-width:0.214724;enable-background:new" />
  </g>
  <g
     id="pressed-center"
     transform="translate(-51)">
    <rect
       id="rect4266-3-67"
       width="18"
       height="18"
       x="0"
       y="0"
       style="opacity:0.00100002;fill:#1f2329;fill-opacity:1;fill-rule:nonzero;stroke:none;stroke-width:1.6364;stroke-linecap:round;stroke-linejoin:round;stroke-miterlimit:4;stroke-dasharray:none;stroke-opacity:1" />
    <circle
       style="fill:#ffffff;fill-opacity:0.6;stroke-width:0.88978;enable-background:new"
       id="path867-5-6-5-1-1"
       cx="9"
       cy="9"
       r="8" />
    <path
       d="m 4.551414,5.0000001 a 0.35173099,0.35573912 0 0 1 0.248556,0.104354 l 4.148089,4.195349 4.148069,-4.195349 a 0.35173099,0.35573912 0 0 1 0.497125,0.502773 L 9.196609,10.053871 a 0.35173099,0.35573912 0 0 1 -0.497112,0 L 4.302864,5.6071271 a 0.35173099,0.35573912 0 0 1 0.24855,-0.607127 z"
       id="path4-3-2-3"
       style="fill:#1f2329;fill-opacity:1;stroke-width:0.11791;enable-background:new" />
    <path
       d="m 4.702515,11.721144 h 8.523919 c 0.261405,0 0.473565,0.174504 0.473565,0.389497 0,0.215004 -0.21216,0.389503 -0.473565,0.389503 H 4.702515 c -0.261399,0 -0.473546,-0.174499 -0.473546,-0.389503 0,-0.214993 0.212147,-0.389497 0.473546,-0.389497 z"
       id="path2-9-6"
       style="fill:#1f2329;fill-opacity:1;stroke-width:0.214744;enable-background:new" />
  </g>
  <g
     id="inactive-pressed-center"
     transform="translate(-51,3.3158152)">
    <rect
       id="rect4266-3-67-6"
       width="18"
       height="18"
       x="81.75"
       y="-3.3158152"
       style="opacity:0.00100002;fill:#1f2329;fill-opacity:1;fill-rule:nonzero;stroke:none;stroke-width:1.6364;stroke-linecap:round;stroke-linejoin:round;stroke-miterlimit:4;stroke-dasharray:none;stroke-opacity:1" />
    <circle
       style="fill:#ffffff;fill-opacity:0.6;stroke-width:0.88978;enable-background:new"
       id="path867-5-6-5-1-1-7"
       cx="90.75"
       cy="5.6841846"
       r="8" />
    <path
       d="m 86.301413,1.6841848 a 0.35173099,0.35573912 0 0 1 0.248556,0.104354 l 4.148089,4.195349 4.148069,-4.195349 a 0.35173099,0.35573912 0 0 1 0.497125,0.502773 l -4.396644,4.4467439 a 0.35173099,0.35573912 0 0 1 -0.497112,0 L 86.052863,2.2913118 a 0.35173099,0.35573912 0 0 1 0.24855,-0.607127 z"
       id="path4-3-2-3-53"
       style="fill:#1f2329;fill-opacity:1;stroke-width:0.11791;enable-background:new" />
    <path
       d="m 86.452514,8.4053287 h 8.523919 c 0.261405,0 0.473565,0.1745042 0.473565,0.389497 0,0.2150048 -0.21216,0.389503 -0.473565,0.389503 h -8.523919 c -0.261399,0 -0.473546,-0.1744982 -0.473546,-0.389503 0,-0.2149928 0.212147,-0.389497 0.473546,-0.389497 z"
       id="path2-9-6-5"
       style="fill:#1f2329;fill-opacity:1;stroke-width:0.214744;enable-background:new" />
  </g>
</svg>
